<?xml version="1.0" encoding="utf-8" standalone="yes"?>
<!DOCTYPE svg PUBLIC "-//W3C//DTD SVG 1.1//EN" "http://www.w3.org/Graphics/SVG/1.1/DTD/svg11.dtd">
<svg width="700" height="689" viewBox="0 0 700 689" style="fill:none;stroke:none;fill-rule:evenodd;clip-rule:evenodd;stroke-linecap:round;stroke-linejoin:round;stroke-miterlimit:1.5;" version="1.1" xmlns="http://www.w3.org/2000/svg" xmlns:xlink="http://www.w3.org/1999/xlink"><style id="fontImports">@import url("https://fonts.googleapis.com/css2?family=Shantell+Sans:wght@300..800&amp;display=block");</style><g id="items" style="isolation: isolate"><g id="blend" style="mix-blend-mode:normal"><g id="g-root-4.Vector_sy_1hegt7p1lrhkau-fill" data-item-order="-207930" transform="translate(353, 377.00006103515625)"><g id="4.Vector_sy_1hegt7p1lrhkau-fill" stroke="none" fill="#c8ffe5"><g><path d="M 22.5 2.4L 10.5 9.4L 17.8 28.3L 32.6 19.7ZM 17.8 28.3L 65.9 17.7L 55.5 -0.5L 10.5 9.4ZM 55.5 -0.5L 8.7 50.1L 21.2 66.1L 65.9 17.7ZM 21.2 66.1L 99.1 23.6L 87.7 7.1L 8.7 50.1ZM 87.7 7.1L 8.7 74.4L 21 90.2L 99.1 23.6ZM 21 90.2L 125.6 16.9L 112.8 1.4L 8.7 74.4ZM 112.8 1.4L 4.9 106L 17.7 121.4L 125.6 16.9ZM 17.7 121.4L 161.8 17.6L 149 2.1L 4.9 106ZM 149 2.1L 4.9 136.7L 17.7 152.1L 161.8 17.6ZM 17.7 152.1L 197.3 19.1L 184.8 3.5L 4.9 136.7ZM 184.8 3.5L 2.6 162.3L 15.1 178L 197.3 19.1ZM 15.1 178L 202 43.8L 189.3 28.3L 2.6 162.3ZM 189.3 28.3L 18.5 187.9L 31.4 203.2L 202 43.8ZM 31.4 203.2L 199.9 73.4L 187.2 58L 18.5 187.9ZM 187.2 58L 39.9 186.5L 52.2 202.3L 199.9 73.4ZM 52.2 202.3L 200.5 100L 187.8 84.4L 39.9 186.5ZM 187.8 84.4L 78.3 190.9L 90.6 206.8L 200.5 100ZM 90.6 206.8L 207.8 134.7L 195.9 118.5L 78.3 190.9ZM 195.9 118.5L 115 189.1L 126.6 205.5L 207.8 134.7ZM 126.6 205.5L 202.9 162.9L 190.6 146.9L 115 189.1ZM 190.6 146.9L 145.2 193.2L 156.3 210.4L 202.9 162.9ZM 156.3 210.4L 195.9 195.9L 185.7 178.4L 145.2 193.2ZM 185.7 178.4L 172.6 189.4L 185.5 204.7L 195.9 195.9Z" fill-rule="nonzero"></path></g></g></g><g id="g-root-3.Vector_sy_18itsyt1lrhl3j-fill" data-item-order="-207926" transform="translate(137, 377.00006103515625)"><g id="3.Vector_sy_18itsyt1lrhl3j-fill" stroke="none" fill="#fff8b6"><g><path d="M 207.7 25.7L 199.3 12L 180.1 19.1L 190.7 36.3ZM 180.1 19.1L 187.2 64L 206 55.2L 199.3 12ZM 206 55.2L 165.2 7.8L 148.6 19.2L 187.2 64ZM 148.6 19.2L 191.4 98.4L 207.5 86.2L 165.2 7.8ZM 207.5 86.2L 129.3 10L 114.2 23.1L 191.4 98.4ZM 114.2 23.1L 189.5 125.4L 205 112.8L 129.3 10ZM 205 112.8L 106.5 3L 90.7 15.4L 189.5 125.4ZM 90.7 15.4L 191.3 162.3L 207.1 149.9L 106.5 3ZM 207.1 149.9L 74.9 3.7L 59.4 16.4L 191.3 162.3ZM 59.4 16.4L 192.4 199.4L 207.8 186.6L 74.9 3.7ZM 207.8 186.6L 39.7 6.8L 24.5 19.8L 192.4 199.4ZM 24.5 19.8L 166.6 202.7L 182 189.9L 39.7 6.8ZM 182 189.9L 20.9 10.2L 5.3 22.9L 166.6 202.7ZM 5.3 22.9L 141.6 208L 157.1 195.4L 20.9 10.2ZM 157.1 195.4L 23.7 44.3L 7.9 56.6L 141.6 208ZM 7.9 56.6L 106.3 200.9L 122 188.4L 23.7 44.3ZM 122 188.4L 18.9 76.4L 2.7 88.4L 106.3 200.9ZM 2.7 88.4L 71.2 204.5L 87.7 193.1L 18.9 76.4ZM 87.7 193.1L 22.6 110.6L 6.1 121.9L 71.2 204.5ZM 6.1 121.9L 52.7 200.2L 68.4 187.6L 22.6 110.6ZM 68.4 187.6L 23.1 144.8L 5 155.2L 52.7 200.2ZM 5 155.2L 15.8 202.4L 34.7 195.3L 23.1 144.8ZM 34.7 195.3L 25.7 178.5L 8.1 188L 15.8 202.4Z" fill-rule="nonzero"></path></g></g></g><g id="g-root-2.Vector_sy_1cynb391lrhl34-fill" data-item-order="-207922" transform="translate(353, 161)"><g id="2.Vector_sy_1cynb391lrhl34-fill" stroke="none" fill="#ffd9d8"><g><path d="M 25.7 5.5L 4.5 22.2L 14.6 39.8L 38.1 21.2ZM 14.6 39.8L 67.7 19.2L 57.6 1.7L 4.5 22.2ZM 57.6 1.7L 6.1 43.6L 17 60.5L 67.7 19.2ZM 17 60.5L 99.7 19.9L 88.4 3.1L 6.1 43.6ZM 88.4 3.1L 3.4 79L 15.7 94.8L 99.7 19.9ZM 15.7 94.8L 130.2 17.3L 117.4 1.8L 3.4 79ZM 117.4 1.8L 5.6 112L 18.7 127.2L 130.2 17.3ZM 18.7 127.2L 166.3 16.7L 153.4 1.3L 5.6 112ZM 153.4 1.3L 9.5 135.4L 22.4 150.7L 166.3 16.7ZM 22.4 150.7L 196.6 20.6L 183.8 5.2L 9.5 135.4ZM 183.8 5.2L 2.1 173.2L 15 188.5L 196.6 20.6ZM 15 188.5L 204.3 42.2L 191.5 26.8L 2.1 173.2ZM 191.5 26.8L 13.7 188.7L 26.4 204.2L 204.3 42.2ZM 26.4 204.2L 203.1 73.9L 190.5 58.3L 13.7 188.7ZM 190.5 58.3L 45.1 188.9L 57.8 204.4L 203.1 73.9ZM 57.8 204.4L 203 96.1L 190.1 80.8L 45.1 188.9ZM 190.1 80.8L 72.9 193.2L 85.2 209.1L 203 96.1ZM 85.2 209.1L 207.2 134.3L 195.5 118.1L 72.9 193.2ZM 195.5 118.1L 115.1 185.8L 126.1 202.6L 207.2 134.3ZM 126.1 202.6L 204.4 164L 193.5 147.1L 115.1 185.8ZM 193.5 147.1L 147.4 185.1L 156.3 203.7L 204.4 164ZM 156.3 203.7L 198.2 194.9L 187.8 176.7L 147.4 185.1ZM 187.8 176.7L 173.1 192.6L 187.9 206.2L 198.2 194.9Z" fill-rule="nonzero"></path></g></g></g><g id="g-root-1.Vector_sy_1430aud1lrhlvt-fill" data-item-order="-207918" transform="translate(137, 161)"><g id="1.Vector_sy_1430aud1lrhlvt-fill" stroke="none" fill="#ffe4cb"><g><path d="M 30.1 6.4L 13.9 7.5L 15.1 27.4L 31.4 26.4ZM 15.1 27.4L 63.7 24.9L 55.9 5.3L 13.9 7.5ZM 55.9 5.3L 10 44.1L 21.2 60.8L 63.7 24.9ZM 21.2 60.8L 94.4 23L 83 6.4L 10 44.1ZM 83 6.4L 5.1 76.3L 17.5 92.1L 94.4 23ZM 17.5 92.1L 125.8 18.5L 113.4 2.8L 5.1 76.3ZM 113.4 2.8L 4.6 103L 17.1 118.7L 125.8 18.5ZM 17.1 118.7L 165.9 16.8L 153.5 1.1L 4.6 103ZM 153.5 1.1L 3 139.3L 15.8 154.7L 165.9 16.8ZM 15.8 154.7L 191.6 20.5L 178.9 5.1L 3 139.3ZM 178.9 5.1L 2.4 162.2L 14.9 177.9L 191.6 20.5ZM 14.9 177.9L 202.7 44.3L 190.2 28.7L 2.4 162.2ZM 190.2 28.7L 11.9 188.6L 24.4 204.2L 202.7 44.3ZM 24.4 204.2L 200 76.8L 187.3 61.3L 11.9 188.6ZM 187.3 61.3L 48.1 190.1L 61 205.4L 200 76.8ZM 61 205.4L 200.2 100.3L 187.2 85.1L 48.1 190.1ZM 187.2 85.1L 80.2 188.6L 92.5 204.5L 200.2 100.3ZM 92.5 204.5L 207.4 135.5L 195.8 119.2L 80.2 188.6ZM 195.8 119.2L 115.1 185.3L 126.5 201.7L 207.4 135.5ZM 126.5 201.7L 200.5 158.6L 188.1 142.6L 115.1 185.3ZM 188.1 142.6L 145.8 185.6L 155.5 204.3L 200.5 158.6ZM 155.5 204.3L 199.6 197L 191.2 178.1L 145.8 185.6ZM 191.2 178.1L 172.8 192.8L 185.3 208.4L 199.6 197Z" fill-rule="nonzero"></path></g></g></g><g id="g-root-0.line_sy_1430aud1lrhlvu-fill" data-item-order="-207911" transform="translate(112, 364.00006103515625)"></g><g id="g-root-0.head_sy_1430aud1lrhlvv-fill" data-item-order="-207909" transform="translate(112, 357.5)"></g><g id="g-root-0.head_1_sy_zn6spx1lrhmo4-fill" data-item-order="-207907" transform="translate(561.5, 357.5)"></g><g id="g-root-0.line_1_sy_zn6spx1lrhmo5-fill" data-item-order="-207903" transform="translate(340, 136)"></g><g id="g-root-0.head_2_sy_zn6spx1lrhmo6-fill" data-item-order="-207901" transform="translate(333.5, 585.5000610351562)"></g><g id="g-root-0.head_3_sy_qs69k51lrhkb3-fill" data-item-order="-207899" transform="translate(333.5, 136)"></g><g id="g-root-tx__1ursx5x1lqzbpk-fill" data-item-order="0" transform="translate(298.08349609375, 604.0000610351562)"><g id="tx__1ursx5x1lqzbpk-fill" stroke="none" fill="#484848"><g><text style="font: 15px &quot;Shantell Sans&quot;, cursive; white-space: pre;" font-size="15px" font-family="'Shantell Sans', cursive"><tspan x="14.5" y="31.4" dominant-baseline="ideographic">低時間投入</tspan></text></g></g></g><g id="g-root-serv_dg3d9h1lrddsd-fill" data-item-order="0" transform="translate(208, 184)"></g><g id="g-root-equa_zpos851lrhma2-fill" data-item-order="0" transform="translate(424, 184)"></g><g id="g-root-tx__hwj9b91lrhlvl-fill" data-item-order="0" transform="translate(166, 256)"><g id="tx__hwj9b91lrhlvl-fill" stroke="none" fill="#484848"><g><text style="font: 20px &quot;Shantell Sans&quot;, cursive; white-space: pre;" font-size="20px" font-family="'Shantell Sans', cursive"><tspan x="16" y="35.6" dominant-baseline="ideographic">基礎雲端技能</tspan></text></g></g></g><g id="g-root-tx__90w92d1lrhmoa-fill" data-item-order="0" transform="translate(382, 256)"><g id="tx__90w92d1lrhmoa-fill" stroke="none" fill="#484848"><g><text style="font: 20px &quot;Shantell Sans&quot;, cursive; white-space: pre;" font-size="20px" font-family="'Shantell Sans', cursive"><tspan x="16" y="35.6" dominant-baseline="ideographic">線性代數學習</tspan></text></g></g></g><g id="g-root-tx__dhcelh1lqzcpb-fill" data-item-order="0" transform="translate(16, 352.00006103515625)"><g id="tx__dhcelh1lqzcpb-fill" stroke="none" fill="#484848"><g><text style="font: 15px &quot;Shantell Sans&quot;, cursive; white-space: pre;" font-size="15px" font-family="'Shantell Sans', cursive"><tspan x="17" y="31.4" dominant-baseline="ideographic">低優先順序</tspan></text></g></g></g><g id="g-root-tx__1hgcesl1lqzdah-fill" data-item-order="0" transform="translate(580, 352.00006103515625)"><g id="tx__1hgcesl1lqzdah-fill" stroke="none" fill="#484848"><g><text style="font: 15px &quot;Shantell Sans&quot;, cursive; white-space: pre;" font-size="15px" font-family="'Shantell Sans', cursive"><tspan x="12" y="31.4" dominant-baseline="ideographic">高優先順序</tspan></text></g></g></g><g id="g-root-tx__1d15dr91lqzawy-fill" data-item-order="0" transform="translate(298, 100)"><g id="tx__1d15dr91lqzawy-fill" stroke="none" fill="#484848"><g><text style="font: 15px &quot;Shantell Sans&quot;, cursive; white-space: pre;" font-size="15px" font-family="'Shantell Sans', cursive"><tspan x="14.5" y="31.4" dominant-baseline="ideographic">高時間投入</tspan></text></g></g></g><g id="g-root-woma_1haq1ut1lr3jt4-fill" data-item-order="0" transform="translate(208, 400.00006103515625)"></g><g id="g-root-1_mczeud1lqzbwm-fill" data-item-order="0" transform="translate(424, 400.00006103515625)"></g><g id="g-root-tx__v7zrol1lrhkao-fill" data-item-order="0" transform="translate(190, 472.00006103515625)"><g id="tx__v7zrol1lrhkao-fill" stroke="none" fill="#484848"><g><text style="font: 20px &quot;Shantell Sans&quot;, cursive; white-space: pre;" font-size="20px" font-family="'Shantell Sans', cursive"><tspan x="12" y="35.6" dominant-baseline="ideographic">求職活動</tspan></text></g></g></g><g id="g-root-tx__90w92d1lrhmob-fill" data-item-order="0" transform="translate(364, 472.00006103515625)"><g id="tx__90w92d1lrhmob-fill" stroke="none" fill="#484848"><g><text style="font: 20px &quot;Shantell Sans&quot;, cursive; white-space: pre;" font-size="20px" font-family="'Shantell Sans', cursive"><tspan x="14" y="35.6" dominant-baseline="ideographic">神經網路建置學習</tspan></text></g></g></g><g id="g-root-tx__4lp8111lrhkas-fill" data-item-order="0" transform="translate(286, 28)"><g id="tx__4lp8111lrhkas-fill" stroke="none" fill="#484848"><g><text style="font: bold 25px &quot;Shantell Sans&quot;, cursive; white-space: pre;" font-weight="bold" font-size="25px" font-family="'Shantell Sans', cursive"><tspan x="14" y="44.2" dominant-baseline="ideographic">短期規劃</tspan></text></g></g></g><g id="g-root-4.Vector_sy_1hegt7p1lrhkau-stroke" data-item-order="-207930" transform="translate(353, 377.00006103515625)"><g id="4.Vector_sy_1hegt7p1lrhkau-stroke" fill="none" stroke-linecap="round" stroke-linejoin="round" stroke-miterlimit="4" stroke="#484848" stroke-width="4"><g><path d="M 21 10C 40.1 9 59.3 9.5 78.4 10C 96.9 10.5 115.3 11.1 133.7 10C 152.1 8.9 170.6 11.3 189 10C 195.1 9.6 201.7 15.1 200 21C 192.8 46.5 200.2 74 200 100.5C 199.8 130 199.3 159.5 200 189C 200.1 195.1 195.1 200 189 200C 174.3 200 159.5 198.2 144.9 200C 130.1 201.8 115.1 200.9 100.2 200C 86.5 199.2 72.8 201.3 59.2 200C 46.5 198.8 33.7 198.7 21 200C 15 200.6 10.2 195.1 10 189C 9.3 171 9.9 152.9 10 134.9C 10.1 117.8 11.2 100.6 10 83.5C 8.5 62.7 10.6 41.8 10 21C 9.8 14.9 15 10.6 21 10"></path><path d="M 21 10L 189 10C 195.075 10 200 14.925 200 21L 200 189C 200 195.075 195.075 200 189 200L 21 200C 14.925 200 10 195.075 10 189L 10 21C 10 14.925 14.925 10 21 10Z"></path></g></g></g><g id="g-root-3.Vector_sy_18itsyt1lrhl3j-stroke" data-item-order="-207926" transform="translate(137, 377.00006103515625)"><g id="3.Vector_sy_18itsyt1lrhl3j-stroke" fill="none" stroke-linecap="round" stroke-linejoin="round" stroke-miterlimit="4" stroke="#484848" stroke-width="4"><g><path d="M 21 10C 40.1 8.4 59.4 9.4 78.7 10C 97.8 10.6 116.9 9.6 136 10C 153.7 10.4 171.4 10.8 189 10C 195.1 9.7 200.3 14.9 200 21C 198.6 49.5 199.6 78.2 200 106.7C 200.4 134.2 202 161.7 200 189C 199.6 195.1 195 198.9 189 200C 176.3 202.4 163.1 199.8 150.1 200C 134.9 200.3 119.6 200.5 104.3 200C 91.7 199.6 79.1 199.6 66.5 200C 51.4 200.4 36.1 201.7 21 200C 15 199.3 11.1 195 10 189C 4.2 158.8 11.4 127.5 10 96.8C 8.8 71.6 11 46.3 10 21C 9.8 14.9 15 11 21 10"></path><path d="M 21 10L 189 10C 195.075 10 200 14.925 200 21L 200 189C 200 195.075 195.075 200 189 200L 21 200C 14.925 200 10 195.075 10 189L 10 21C 10 14.925 14.925 10 21 10Z"></path></g></g></g><g id="g-root-2.Vector_sy_1cynb391lrhl34-stroke" data-item-order="-207922" transform="translate(353, 161)"><g id="2.Vector_sy_1cynb391lrhl34-stroke" fill="none" stroke-linecap="round" stroke-linejoin="round" stroke-miterlimit="4" stroke="#484848" stroke-width="4"><g><path d="M 21 10C 48.2 11.3 75.5 10.6 102.7 10C 131.5 9.4 160.3 8.1 189 10C 195.1 10.4 200.2 14.9 200 21C 199.1 49.7 200.6 78.5 200 107.2C 199.4 134.5 200 161.7 200 189C 200 195.1 195.1 200.4 189 200C 160.8 198.4 132.5 201.8 104.3 200C 76.6 198.2 48.7 199 21 200C 14.9 200.2 11 195 10 189C 5.3 160.3 10.5 130.9 10 101.9C 9.5 74.9 9.8 48 10 21C 10 14.9 14.9 10.5 21 10"></path><path d="M 21 10L 189 10C 195.075 10 200 14.925 200 21L 200 189C 200 195.075 195.075 200 189 200L 21 200C 14.925 200 10 195.075 10 189L 10 21C 10 14.925 14.925 10 21 10Z"></path></g></g></g><g id="g-root-1.Vector_sy_1430aud1lrhlvt-stroke" data-item-order="-207918" transform="translate(137, 161)"><g id="1.Vector_sy_1430aud1lrhlvt-stroke" fill="none" stroke-linecap="round" stroke-linejoin="round" stroke-miterlimit="4" stroke="#484848" stroke-width="4"><g><path d="M 21 10C 34.4 9.2 47.8 10.8 61.2 10C 74.4 9.2 87.7 10.7 100.9 10C 114.2 9.3 127.6 8 140.8 10C 156.7 12.4 172.9 9.9 189 10C 195.1 10 201.1 15 200 21C 196.4 40.8 201.7 61.2 200 81.2C 198.3 100.9 199.6 120.8 200 140.5C 200.3 156.7 201.1 172.9 200 189C 199.6 195.1 195 199.3 189 200C 170.6 202.3 151.9 201 133.4 200C 113.4 198.9 93.3 200.5 73.2 200C 55.8 199.6 38.4 199.1 21 200C 14.9 200.3 10.6 195 10 189C 7.4 163.7 11.6 138 10 112.6C 8 82.1 8.8 51.5 10 21C 10.2 14.9 14.9 9.9 21 10"></path><path d="M 21 10L 189 10C 195.075 10 200 14.925 200 21L 200 189C 200 195.075 195.075 200 189 200L 21 200C 14.925 200 10 195.075 10 189L 10 21C 10 14.925 14.925 10 21 10Z"></path></g></g></g><g id="g-root-0.line_sy_1430aud1lrhlvu-stroke" data-item-order="-207911" transform="translate(112, 364.00006103515625)"><g id="0.line_sy_1430aud1lrhlvu-stroke" fill="none" stroke-linecap="round" stroke-linejoin="round" stroke-miterlimit="4" stroke="#484848" stroke-width="2"><g><path d="M 10 10C 27.9 8.9 45.9 11.1 63.7 10C 84.7 8.7 105.7 8.6 126.7 10C 144.2 11.2 161.9 11.2 179.4 10C 198.9 8.6 218.5 9.4 238 10C 258.3 10.6 278.7 8.3 299 10C 316.8 11.5 334.9 10.8 352.8 10C 370.4 9.2 388.3 8.2 405.9 10C 425.8 12.1 446 8.2 466 10"></path><path d="M 10 10L 238 10L 466 10"></path></g></g></g><g id="g-root-0.head_sy_1430aud1lrhlvv-stroke" data-item-order="-207909" transform="translate(112, 357.5)"><g id="0.head_sy_1430aud1lrhlvv-stroke" fill="none" stroke-linecap="round" stroke-linejoin="round" stroke-miterlimit="4" stroke="#484848" stroke-width="2"><g><path d="M 16.5 10C 14.4 12.3 10 16.5 10 16.5C 12.4 18.4 14.5 20.7 16.5 23"></path><path d="M 16.5 10C 14.333 12.167 10 16.5 10 16.5L 16.5 23"></path></g></g></g><g id="g-root-0.head_1_sy_zn6spx1lrhmo4-stroke" data-item-order="-207907" transform="translate(561.5, 357.5)"><g id="0.head_1_sy_zn6spx1lrhmo4-stroke" fill="none" stroke-linecap="round" stroke-linejoin="round" stroke-miterlimit="4" stroke="#484848" stroke-width="2"><g><path d="M 10 10C 12.2 12.1 16.5 16.5 16.5 16.5C 14.5 18.8 12.1 20.7 10 23"></path><path d="M 10 10C 12.166 12.167 16.5 16.5 16.5 16.5L 10 23"></path></g></g></g><g id="g-root-0.line_1_sy_zn6spx1lrhmo5-stroke" data-item-order="-207903" transform="translate(340, 136)"><g id="0.line_1_sy_zn6spx1lrhmo5-stroke" fill="none" stroke-linecap="round" stroke-linejoin="round" stroke-miterlimit="4" stroke="#484848" stroke-width="2"><g><path d="M 10 466C 12 450.8 9.4 435.3 10 419.9C 10.5 405 8.5 389.9 10 375C 11.6 358.9 9.7 342.6 10 326.3C 10.3 311.7 11.8 296.9 10 282.4C 8.4 269 9.9 255.4 10 242C 10.2 216.3 9.9 190.6 10 164.9C 10.1 138.6 10.4 112.4 10 86.2C 9.6 60.8 9.4 35.4 10 10"></path><path d="M 10 466L 10 242L 10 10"></path></g></g></g><g id="g-root-0.head_2_sy_zn6spx1lrhmo6-stroke" data-item-order="-207901" transform="translate(333.5, 585.5000610351562)"><g id="0.head_2_sy_zn6spx1lrhmo6-stroke" fill="none" stroke-linecap="round" stroke-linejoin="round" stroke-miterlimit="4" stroke="#484848" stroke-width="2"><g><path d="M 10 10C 12.7 11.5 16.5 16.5 16.5 16.5C 18.4 14.1 21 12.3 23 10"></path><path d="M 10 10C 12.167 12.167 16.5 16.5 16.5 16.5L 23 10"></path></g></g></g><g id="g-root-0.head_3_sy_qs69k51lrhkb3-stroke" data-item-order="-207899" transform="translate(333.5, 136)"><g id="0.head_3_sy_qs69k51lrhkb3-stroke" fill="none" stroke-linecap="round" stroke-linejoin="round" stroke-miterlimit="4" stroke="#484848" stroke-width="2"><g><path d="M 10 16.5C 11.7 13.9 16.5 10 16.5 10C 19.1 11.6 20.5 14.7 23 16.5"></path><path d="M 10 16.5C 12.167 14.333 16.5 10 16.5 10L 23 16.5"></path></g></g></g><g id="g-root-tx__1ursx5x1lqzbpk-stroke" data-item-order="0" transform="translate(298.08349609375, 604.0000610351562)"></g><g id="g-root-serv_dg3d9h1lrddsd-stroke" data-item-order="0" transform="translate(208, 184)"><g id="serv_dg3d9h1lrddsd-stroke" fill="none" stroke-linecap="round" stroke-linejoin="round" stroke-miterlimit="4" stroke="#484848" stroke-width="2"><g><path d="M 51 23.799999C 51.599998 22 50 20.200001 48.599998 18.6C 47.400002 17.200001 45.200001 17 43.400002 16.799999C 41.599998 13.2 38 10.6 34 11C 29 9.2 24.200001 15 23.6 20.4C 22 20.200001 20.6 20.6 19.200001 21.4C 17.6 22.200001 16.6 24 17 25.6C 15 30.799999 23 31 23 31C 29.799999 32.599998 37.200001 30.4 44.400002 31C 44.400002 31 49.799999 30 51 23.799999M 23.6 51.400002C 23.200001 51.400002 22.799999 51.799999 23 52C 23 52.200001 23.200001 52.599998 23.4 52.400002C 23.799999 52.400002 24 52.200001 24 52M 28.6 51.400002C 28.200001 51.599998 28 51.799999 28 52C 28 52.200001 28.200001 52.599998 28.4 52.400002C 28.799999 52.400002 29 52.200001 29 52M 51 54C 51.599998 55.599998 49.599998 57.200001 48 57C 38.799999 55.599998 29.200001 56.200001 20 57C 18.4 57.200001 17 55.599998 17 54C 17 52.599998 17 51.400002 17 50C 17 48.400002 18.4 46.799999 20 47C 29.200001 48.599998 39.200001 49.799999 48 47C 49.599998 46.400002 51 48.400002 51 50C 51 51.400002 51 52.599998 51 54M 23.6 41.400002C 23.200001 41.400002 23 41.799999 23 42C 23 42.200001 23.200001 42.400002 23.4 42.400002C 23.799999 42.599998 24 42.200001 24 42M 28.6 41.400002C 28.200001 41.599998 28.200001 41.799999 28 42C 28 42.200001 28.200001 42.599998 28.4 42.400002C 28.799999 42.400002 29 42.200001 29 42M 51 44C 50.599998 45.599998 49.599998 47.400002 48 47C 38.799999 45 29.200001 45.200001 20 47C 18.4 47.400002 17 45.599998 17 44C 17 42.599998 16.6 41.200001 17 40C 17.4 38.400002 18.4 37.200001 20 37C 29.200001 36 38.599998 36.599998 48 37C 49.599998 37 50.599998 38.400002 51 40C 51.400002 41.200001 51 42.599998 51 44"></path><path d="M 51 23.854C 50.966511 21.881111 50.131657 20.006788 48.687508 18.662231C 47.243355 17.317677 45.314247 16.618662 43.343998 16.726C 41.574951 13.192698 37.951328 10.972141 34 11C 28.620384 10.922284 24.105413 15.036353 23.684 20.4C 22.078552 20.044861 20.398424 20.42691 19.104412 21.441368C 17.810402 22.455822 17.038349 23.996189 17 25.639999C 17 31.084 22.911999 31 22.911999 31L 44.348 31C 44.348 31 51 30.158001 51 23.854ZM 23.5 51.498001C 23.224117 51.498001 23.00037 51.721455 23.000004 51.997337C 22.999638 52.273216 23.222792 52.497265 23.498672 52.497997C 23.774551 52.498734 23.998898 52.275879 24 52C 24.000534 51.867226 23.948027 51.739738 23.854143 51.645855C 23.760258 51.551971 23.632771 51.499466 23.5 51.5L 23.5 51.5M 28.5 51.498001C 28.224119 51.498001 28.00037 51.721455 28.000004 51.997337C 27.999638 52.273216 28.222792 52.497265 28.498672 52.497997C 28.774553 52.498734 28.998896 52.275879 29 52C 29.000534 51.867226 28.948027 51.739738 28.854143 51.645855C 28.760258 51.551971 28.632771 51.499466 28.5 51.5L 28.5 51.5M 51 54C 51 55.656857 49.656857 57 48 57L 20 57C 18.343147 57 17 55.656857 17 54L 17 50C 17 48.343147 18.343147 47 20 47L 48 47C 49.656857 47 51 48.343147 51 50ZM 23.5 41.498001C 23.224117 41.498001 23.00037 41.721455 23.000004 41.997337C 22.999638 42.273216 23.222792 42.497265 23.498672 42.497997C 23.774551 42.498734 23.998898 42.275879 24 42C 24.000534 41.867226 23.948027 41.739738 23.854143 41.645855C 23.760258 41.551971 23.632771 41.499466 23.5 41.5L 23.5 41.5M 28.5 41.498001C 28.224119 41.498001 28.00037 41.721455 28.000004 41.997337C 27.999638 42.273216 28.222792 42.497265 28.498672 42.497997C 28.774553 42.498734 28.998896 42.275879 29 42C 29.000534 41.867226 28.948027 41.739738 28.854143 41.645855C 28.760258 41.551971 28.632771 41.499466 28.5 41.5L 28.5 41.5M 51 44C 51 45.656857 49.656857 47 48 47L 20 47C 18.343147 47 17 45.656857 17 44L 17 40C 17 38.343147 18.343147 37 20 37L 48 37C 49.656857 37 51 38.343147 51 40Z"></path></g></g></g><g id="g-root-equa_zpos851lrhma2-stroke" data-item-order="0" transform="translate(424, 184)"><g id="equa_zpos851lrhma2-stroke" fill="none" stroke-linecap="round" stroke-linejoin="round" stroke-miterlimit="4" stroke="#484848" stroke-width="2"><g><path d="M 11.6 25.6C 26.4 26.4 41.599998 27 56.599998 25.6M 11.6 42.400002C 26.4 41.200001 41.799999 45.799999 56.599998 42.400002"></path><path d="M 11.5 25.642L 56.5 25.642M 11.5 42.358002L 56.5 42.358002"></path></g></g></g><g id="g-root-tx__hwj9b91lrhlvl-stroke" data-item-order="0" transform="translate(166, 256)"></g><g id="g-root-tx__90w92d1lrhmoa-stroke" data-item-order="0" transform="translate(382, 256)"></g><g id="g-root-tx__dhcelh1lqzcpb-stroke" data-item-order="0" transform="translate(16, 352.00006103515625)"></g><g id="g-root-tx__1hgcesl1lqzdah-stroke" data-item-order="0" transform="translate(580, 352.00006103515625)"></g><g id="g-root-tx__1d15dr91lqzawy-stroke" data-item-order="0" transform="translate(298, 100)"></g><g id="g-root-woma_1haq1ut1lr3jt4-stroke" data-item-order="0" transform="translate(208, 400.00006103515625)"><g id="woma_1haq1ut1lr3jt4-stroke" fill="none" stroke-linecap="round" stroke-linejoin="round" stroke-miterlimit="4" stroke="#484848" stroke-width="2"><g><path d="M 35 21.200001C 34.599998 26.200001 39.400002 28.6 44 30.200001C 48.799999 31.799999 52.200001 26 53.200001 21.200001C 54 16.200001 49 11.2 44 12C 39.200001 13 33.799999 16.4 35 21.200001M 57 34C 55.200001 31.6 52.799999 29.799999 50.599998 27.6M 43 56C 47.799999 56.200001 52.400002 55.799999 57 56C 55.799999 52.400002 54.400002 49.400002 51.799999 46.599998C 49 44 44.799999 45.799999 41 46.400002M 52.400002 36C 51.799999 38.400002 50.799999 41 48.400002 41.599998C 46 42.200001 43 42.599998 41.599998 40.599998C 40.400002 38.599998 38.799999 36.400002 39.599998 34M 35.200001 39.200001C 34.599998 37.200001 33 35.200001 33.599998 33.200001C 33.599998 32.400002 33.799999 31.4 33.599998 30.6C 33.799999 27.6 32.400002 24 29.4 23C 26.4 22 23.4 21.4 20.6 23C 18 24.6 16.4 27.6 16.4 30.6C 16.4 31.6 16.6 32.400002 16.4 33.200001C 17 35.200001 15.8 37.400002 14.8 39.200001M 16.4 32.200001C 19.799999 31.799999 22.4 30.200001 25 28.200001C 27 30.799999 30.6 33.400002 33.599998 32.200001M 32.599998 32C 31.6 36 29 39.400002 25 39.200001C 21 39.200001 18.4 36 17.4 32M 39 56C 41 48.599998 32.599998 43.599998 25 42C 17.4 40.599998 11 48.400002 11 56C 20.200001 54.400002 29.799999 57 39 56M 32.200001 44C 30 46.599998 26.799999 48.400002 25 51C 22.6 48.799999 20.799999 45.599998 18 44"></path><path d="M 35.024002 21.152C 35.024002 26.154594 39.079407 30.209999 44.082001 30.209999C 49.084595 30.209999 53.139999 26.154594 53.139999 21.152C 53.139999 16.149405 49.084595 12.094 44.082001 12.094C 39.079407 12.094 35.024002 16.149405 35.024002 21.152ZM 57.023998 34.094002L 50.528 27.6M 43.023998 56.094002L 57.023998 56.094002C 57.023926 52.254795 55.02219 48.693398 51.742565 46.69751C 48.462936 44.701626 44.37999 44.560059 40.970001 46.324001M 52.400002 36.091999C 52.223541 38.536762 50.686813 40.67437 48.425617 41.620407C 46.164421 42.566444 43.56332 42.160023 41.698494 40.569294C 39.833672 38.978561 39.02227 36.47406 39.599998 34.092003M 35.220001 39.290001C 34.102859 37.453415 33.546738 35.330414 33.619999 33.181999L 33.620003 30.684C 33.74728 27.531286 32.137871 24.562027 29.426781 22.947779C 26.715691 21.333529 23.33831 21.333529 20.62722 22.947779C 17.916132 24.562027 16.306721 27.531286 16.434 30.684002L 16.434 33.181999C 16.507263 35.330414 15.951139 37.453415 14.834 39.290001M 16.43 32.104C 19.73263 32.101048 22.871014 30.663231 25.030001 28.164001C 27.188334 30.664099 30.327139 32.102112 33.630001 32.104M 32.599998 32.057999C 32.41391 36.105759 29.078032 39.291798 25.026001 39.291798C 20.973969 39.291798 17.638088 36.105759 17.452 32.057999M 39.024002 56.094002C 39.024002 48.362015 32.755989 42.094002 25.024002 42.094002C 17.292015 42.094002 11.024 48.362015 11.024 56.094002ZM 32.104 44.014L 25.024 51.094002L 17.944 44.014"></path></g></g></g><g id="g-root-1_mczeud1lqzbwm-stroke" data-item-order="0" transform="translate(424, 400.00006103515625)"><g id="1_mczeud1lqzbwm-stroke" fill="none" stroke-linecap="round" stroke-linejoin="round" stroke-miterlimit="4" stroke="#484848" stroke-width="2"><g><path d="M 22 50.799999C 23.799999 49.799999 25.4 48.799999 26.6 47M 14.8 27C 19 27 23.4 30 24.4 34.200001M 21.6 30.4C 22.799999 29.6 24 28.6 25.200001 27.799999M 30 11.4C 30.4 13.4 30.200001 15.6 29 17.200001M 26 19C 26 20.200001 26.799999 20.799999 28 21C 29 21.200001 30.200001 20 30 19C 29.799999 18 29 16.6 28 17C 27 17.4 26 18 26 19M 38 23C 38.200001 24 39 25.4 40 25C 41 24.6 41.799999 24.200001 42 23C 42.200001 22 41 20.799999 40 21C 39 21.200001 37.599998 22 38 23M 45 31C 45 32.200001 46 32.799999 47 33C 48 33.200001 48.799999 32.200001 49 31C 49.200001 30 48 29.200001 47 29C 46 28.799999 44.599998 30 45 31M 38 38C 37.799999 39.200001 38.799999 39.799999 40 40C 41 40.200001 41.599998 39 42 38C 42.400002 37 41.200001 36 40 36C 38.799999 36 38.200001 36.799999 38 38M 25 27C 25 28.200001 26 28.799999 27 29C 28 29.4 28.799999 28 29 27C 29.200001 26 28 25.4 27 25C 26 24.6 24.6 26 25 27M 23 36C 22.6 37 24 37.799999 25 38C 26 38.400002 26.799999 37 27 36C 27.200001 35 26 33.599998 25 34C 24 34.400002 23 34.799999 23 36M 57 34C 57 31.200001 55.799999 27.799999 53.200001 27C 53.400002 26.6 53.599998 25.799999 53.400002 25.200001C 52.200001 21.4 50.200001 18 46 17.200001C 45.799999 15.6 45.400002 14.2 44.400002 12.8C 43.400002 11.6 41.599998 10.8 40 11C 37.599998 10.2 35.799999 13.2 34 15C 33 12.6 30.4 11.6 28 11C 26.4 11.2 25 12 23.6 12.8C 22.200001 13.8 21.6 15.6 21.799999 17.200001C 18 18.6 15 21.200001 14.6 25.200001C 14.6 25.799999 14.6 26.6 14.8 27C 12.4 28.4 11.4 31.200001 11 34C 10.6 36.799999 12.2 40 14.8 41C 14.6 41.400002 14.4 42.200001 14.6 42.799999C 15.8 46.599998 17.799999 51.200001 21.799999 50.799999C 21.200001 52.200001 22.4 54 23.6 55.200001C 24.799999 56.200001 26.4 56.799999 28 57C 30.4 57.200001 32.799999 56 34 54C 35.400002 56 37.599998 56.799999 40 57C 41.599998 57.200001 43 56 44.400002 55.200001C 45.799999 54.200001 46.400002 52.400002 46 50.799999C 50 49 54.200001 46.799999 53.400002 42.799999C 53.200001 42.200001 53 41.599998 53.200001 41C 55 38.799999 58 36.599998 57 34M 34 15C 32.400002 22.6 34 30.4 34 38M 34 46C 33.799999 48.599998 34.799999 51.400002 34 54M 52.400002 21.4C 50.400002 22 48.799999 23.4 46.799999 24.200001C 45 24.6 43 25.4 41.599998 24.200001M 40 36C 39.799999 33.400002 42.400002 31.200001 45 31M 46.200001 50.799999C 45 49.200001 44.599998 46.799999 43 47M 25 45C 24.799999 46 25.799999 47.200001 27 47C 28 46.799999 29.200001 46 29 45C 28.799999 44 28.200001 43.200001 27 43C 26 42.799999 25.4 44 25 45M 39 47C 39 48 40 48.599998 41 49C 42 49.400002 43.200001 48 43 47C 42.799999 46 42 45 41 45C 39.799999 45.200001 39 46 39 47"></path><path d="M 21.9 50.722C 24.020437 50.369061 25.810703 48.951202 26.639999 46.967999M 14.842 27.091999C 18.933346 27.809448 22.448338 30.41087 24.33 34.113998M 21.566 30.458L 25.152 27.768M 30 11.346C 29.961555 13.350931 29.599562 15.336494 28.928001 17.226M 26 19C 26 20.104568 26.89543 21 28 21C 29.10457 21 30 20.104568 30 19C 30 17.895432 29.10457 17 28 17C 26.89543 17 26 17.895432 26 19ZM 38 23C 38 24.104568 38.895432 25 40 25C 41.104568 25 42 24.104568 42 23C 42 21.895432 41.104568 21 40 21C 38.895432 21 38 21.895432 38 23ZM 45 31C 45 32.104568 45.895432 33 47 33C 48.104568 33 49 32.104568 49 31C 49 29.89543 48.104568 29 47 29C 45.895432 29 45 29.89543 45 31ZM 38 38C 38 39.104568 38.895432 40 40 40C 41.104568 40 42 39.104568 42 38C 42 36.895432 41.104568 36 40 36C 38.895432 36 38 36.895432 38 38ZM 25 27C 25 28.10457 25.895432 29 27 29C 28.10457 29 29 28.10457 29 27C 29 25.895432 28.10457 25 27 25C 25.895432 25 25 25.895432 25 27ZM 23 36C 23 37.104568 23.895432 38 25 38C 26.10457 38 27 37.104568 27 36C 27 34.895432 26.10457 34 25 34C 23.895432 34 23 34.895432 23 36ZM 57 34C 57.008011 31.185829 55.553005 28.569696 53.158001 27.092001C 53.293533 26.501471 53.363956 25.897869 53.368 25.292C 53.408073 21.133251 50.242878 17.643175 46.099998 17.278C 46.141312 15.640398 45.524818 14.054508 44.388306 12.874773C 43.251789 11.695037 41.690002 11.019809 40.052002 11C 37.462227 11.148269 35.151451 12.67555 34 15C 32.848549 12.67555 30.537773 11.148269 27.948 11C 26.309998 11.019809 24.748211 11.695037 23.611694 12.874773C 22.47518 14.054508 21.858686 15.640398 21.9 17.278C 17.755573 17.643291 14.589825 21.135719 14.632 25.296C 14.632763 25.901501 14.699829 26.505098 14.832 27.095999C 12.44329 28.57963 10.990566 31.192043 10.990566 34.003998C 10.990566 36.815956 12.44329 39.428368 14.832 40.911999C 14.699829 41.502899 14.632763 42.106499 14.632 42.711998C 14.594027 46.869217 17.758669 50.356941 21.9 50.722C 21.858686 52.3596 22.47518 53.945492 23.611694 55.125225C 24.748211 56.304962 26.309998 56.98019 27.948 57C 30.33633 57.057899 32.59996 55.93581 34 53.999996C 35.40004 55.93581 37.663666 57.057899 40.051998 56.999996C 41.690002 56.98019 43.251789 56.304962 44.388306 55.125225C 45.524818 53.945492 46.141312 52.3596 46.099998 50.722C 50.244423 50.356709 53.410175 46.864277 53.368 42.703999C 53.363956 42.098129 53.293533 41.49453 53.157997 40.903999C 55.551788 39.427048 57.006618 36.812752 57 34ZM 34 15L 34 38M 34 45.916L 34 54M 52.346001 21.326L 46.799999 24.102001C 45.179813 24.913155 43.276203 24.932337 41.639999 24.153999M 40 36C 40.593044 33.525269 42.525269 31.593044 45.000004 31.000002M 46.099998 50.722C 45.548 48.799999 44.605999 47.321999 43 47M 25 45C 25 46.104568 25.895432 47 27 47C 28.10457 47 29 46.104568 29 45C 29 43.895432 28.10457 43 27 43C 25.895432 43 25 43.895432 25 45ZM 39 47C 39 48.104568 39.895432 49 41 49C 42.104568 49 43 48.104568 43 47C 43 45.895432 42.104568 45 41 45C 39.895432 45 39 45.895432 39 47Z"></path></g></g></g><g id="g-root-tx__v7zrol1lrhkao-stroke" data-item-order="0" transform="translate(190, 472.00006103515625)"></g><g id="g-root-tx__90w92d1lrhmob-stroke" data-item-order="0" transform="translate(364, 472.00006103515625)"></g><g id="g-root-tx__4lp8111lrhkas-stroke" data-item-order="0" transform="translate(286, 28)"></g></g></g></svg>